<svg xmlns="http://www.w3.org/2000/svg" width="36" height="32" viewBox="0 0 36 32">
  <g id="Icons_with_numbers" data-name="Icons with numbers" transform="translate(-96 -4)">
    <g id="Group" transform="translate(96 4)">
      <path id="Oval_247_copy" data-name="Oval 247 copy" d="M787,223.017a21.88,21.88,0,0,0,6.609-1.008c2.088,1.67,5.608,3.991,9.044,3.991-1.8-1.749-2.309-5.136-2.42-7.655A13.076,13.076,0,0,0,805,208.508c0-8.014-8.059-14.508-18-14.508s-18,6.494-18,14.508S777.059,223.017,787,223.017Zm0-10.552a2.639,2.639,0,1,1,2.572-2.638A2.606,2.606,0,0,1,787,212.465Zm7.714,0a2.639,2.639,0,1,1,2.571-2.638A2.606,2.606,0,0,1,794.714,212.465Zm-15.429,0a2.639,2.639,0,1,1,2.571-2.638A2.606,2.606,0,0,1,779.286,212.465Zm0,0" transform="translate(-769 -194)" fill="#fff" fill-rule="evenodd"/>
    </g>
  </g>
</svg>
